<?xml version="1.0" encoding="iso-8859-1"?>
<!-- Uploaded to: SVG Repo, www.svgrepo.com, Generator: SVG Repo Mixer Tools -->
<!DOCTYPE svg PUBLIC "-//W3C//DTD SVG 1.1//EN" "http://www.w3.org/Graphics/SVG/1.1/DTD/svg11.dtd">
<svg fill="#000000" height="800px" width="800px" version="1.1" id="Capa_1" xmlns="http://www.w3.org/2000/svg" xmlns:xlink="http://www.w3.org/1999/xlink" 
	 viewBox="0 0 289.068 289.068" xml:space="preserve">
<path d="M53.129,196.355l-19.29,19.29l-12.5-12.501c-4.881-4.881-12.797-4.881-17.678,0c-4.882,4.882-4.882,12.796,0,17.678
	l64.585,64.585c4.882,4.882,12.797,4.881,17.678,0c4.882-4.882,4.882-12.796,0-17.678l-12.5-12.5l19.289-19.29L53.129,196.355z"/>
<path d="M285.407,3.661c-4.881-4.881-12.797-4.881-17.678,0l-56.002,56.002l-57.775-16.475c-4.364-1.248-9.059-0.026-12.267,3.182
	L45.85,142.205c-2.344,2.344-3.661,5.523-3.661,8.839c0,3.316,1.317,6.495,3.661,8.839l83.335,83.335
	c2.345,2.344,5.523,3.661,8.839,3.661c3.315,0,6.495-1.317,8.839-3.661l95.834-95.835c3.208-3.208,4.426-7.903,3.182-12.267
	l-16.474-57.775l56.002-56.002C290.288,16.457,290.288,8.543,285.407,3.661z M119.92,162.108c-1.953,1.952-4.512,2.929-7.071,2.929
	c-2.56,0-5.118-0.977-7.071-2.929l-21.201-21.2l14.143-14.143l21.201,21.2C123.825,151.871,123.825,158.203,119.92,162.108z
	 M142.967,139.062c-1.953,1.952-4.512,2.929-7.071,2.929c-2.559,0-5.118-0.977-7.071-2.929l-21.2-21.2l14.142-14.143l21.2,21.2
	C146.872,128.824,146.872,135.156,142.967,139.062z M166.015,116.015c-1.953,1.952-4.512,2.929-7.071,2.929
	s-5.118-0.976-7.071-2.929l-21.201-21.201l14.143-14.143l21.201,21.201C169.92,105.777,169.92,112.109,166.015,116.015z"/>
</svg>